name Walk3.mot
datacolumns 19
datarows 12
range 3.27300000 3.28400000
endheader

                time	   L_ground_force_vx	   L_ground_force_vy	   L_ground_force_vz	   L_ground_force_px	   L_ground_force_py	   L_ground_force_pz	   R_ground_force_vx	   R_ground_force_vy	   R_ground_force_vz	   R_ground_force_px	   R_ground_force_py	   R_ground_force_pz	   L_ground_torque_x	   L_ground_torque_y	   L_ground_torque_z	   R_ground_torque_x	   R_ground_torque_y	   R_ground_torque_z	
          3.27300000	        -35.55072371	        698.31945493	        -32.27364309	          0.12798871	          0.00000000	          0.08770246	          0.00000000	          0.00000000	          0.00000000	          0.00000000	          0.00000000	          0.00000000	          0.00000000	          4.28050209	          0.00000000	          0.00000000	          0.00000000	          0.00000000	
          3.27400000	        -35.05386447	        697.28649221	        -32.24187711	          0.12825727	          0.00000000	          0.08777454	          0.00000000	          0.00000000	          0.00000000	          0.00000000	          0.00000000	          0.00000000	          0.00000000	          4.26656320	          0.00000000	          0.00000000	          0.00000000	          0.00000000	
          3.27500000	        -34.57096211	        696.24017052	        -32.19686253	          0.12857047	          0.00000000	          0.08785272	          0.00000000	          0.00000000	          0.00000000	          0.00000000	          0.00000000	          0.00000000	          0.00000000	          4.24208073	          0.00000000	          0.00000000	          0.00000000	          0.00000000	
          3.27600000	        -34.10685241	        695.14321242	        -32.14693119	          0.12888058	          0.00000000	          0.08791938	          0.00000000	          0.00000000	          0.00000000	          0.00000000	          0.00000000	          0.00000000	          0.00000000	          4.21533577	          0.00000000	          0.00000000	          0.00000000	          0.00000000	
          3.27700000	        -33.66034050	        693.95568752	        -32.10685909	          0.12913835	          0.00000000	          0.08795339	          0.00000000	          0.00000000	          0.00000000	          0.00000000	          0.00000000	          0.00000000	          0.00000000	          4.19147703	          0.00000000	          0.00000000	          0.00000000	          0.00000000	
          3.27800000	        -33.23028853	        692.68036148	        -32.08297407	          0.12932745	          0.00000000	          0.08795818	          0.00000000	          0.00000000	          0.00000000	          0.00000000	          0.00000000	          0.00000000	          0.00000000	          4.17063733	          0.00000000	          0.00000000	          0.00000000	          0.00000000	
          3.27900000	        -32.81173871	        691.38800453	        -32.06960992	          0.12948565	          0.00000000	          0.08795721	          0.00000000	          0.00000000	          0.00000000	          0.00000000	          0.00000000	          0.00000000	          0.00000000	          4.15418775	          0.00000000	          0.00000000	          0.00000000	          0.00000000	
          3.28000000	        -32.39541177	        690.16329829	        -32.05930305	          0.12967694	          0.00000000	          0.08796782	          0.00000000	          0.00000000	          0.00000000	          0.00000000	          0.00000000	          0.00000000	          0.00000000	          4.14645372	          0.00000000	          0.00000000	          0.00000000	          0.00000000	
          3.28100000	        -31.97515636	        689.01330605	        -32.05494859	          0.12993072	          0.00000000	          0.08798289	          0.00000000	          0.00000000	          0.00000000	          0.00000000	          0.00000000	          0.00000000	          0.00000000	          4.14950952	          0.00000000	          0.00000000	          0.00000000	          0.00000000	
          3.28200000	        -31.54787487	        687.86933619	        -32.06542120	          0.13022265	          0.00000000	          0.08799203	          0.00000000	          0.00000000	          0.00000000	          0.00000000	          0.00000000	          0.00000000	          0.00000000	          4.15988984	          0.00000000	          0.00000000	          0.00000000	          0.00000000	
          3.28300000	        -31.11113040	        686.66597114	        -32.09230594	          0.13050879	          0.00000000	          0.08800480	          0.00000000	          0.00000000	          0.00000000	          0.00000000	          0.00000000	          0.00000000	          0.00000000	          4.16947124	          0.00000000	          0.00000000	          0.00000000	          0.00000000	
          3.28400000	        -30.66696211	        685.38650015	        -32.13019661	          0.13075262	          0.00000000	          0.08803281	          0.00000000	          0.00000000	          0.00000000	          0.00000000	          0.00000000	          0.00000000	          0.00000000	          4.16998851	          0.00000000	          0.00000000	          0.00000000	          0.00000000	
